<?xml version="1.0" encoding="UTF-8"?>
<!DOCTYPE svg PUBLIC "-//W3C//DTD SVG 1.1//EN" "http://www.w3.org/Graphics/SVG/1.1/DTD/svg11.dtd">
<svg xmlns="http://www.w3.org/2000/svg" version="1.1" width="752px" height="752px" style="shape-rendering:geometricPrecision; text-rendering:geometricPrecision; image-rendering:optimizeQuality; fill-rule:evenodd; clip-rule:evenodd" xmlns:xlink="http://www.w3.org/1999/xlink">
<g><path style="opacity:0.978" fill="#000000" d="M 367.5,166.5 C 441.982,166.159 501.482,195.493 546,254.5C 586.389,315.276 594.722,380.276 571,449.5C 542.959,517.204 493.459,560.37 422.5,579C 343.885,594.347 276.719,573.513 221,516.5C 167.307,452.692 153.64,381.025 180,301.5C 208.041,233.796 257.541,190.63 328.5,172C 341.538,169.351 354.538,167.518 367.5,166.5 Z M 403.5,201.5 C 442.378,207.604 475.378,224.77 502.5,253C 484.836,253.5 467.17,253.667 449.5,253.5C 449.5,245.5 449.5,237.5 449.5,229.5C 439.167,229.5 428.833,229.5 418.5,229.5C 418.5,246.167 418.5,262.833 418.5,279.5C 409.833,279.5 401.167,279.5 392.5,279.5C 392.5,289.167 392.5,298.833 392.5,308.5C 386.833,308.5 381.167,308.5 375.5,308.5C 375.5,340.167 375.5,371.833 375.5,403.5C 388.184,403.168 400.851,403.501 413.5,404.5C 413.936,421.662 414.103,439.995 414,459.5C 421.747,460.482 429.58,460.815 437.5,460.5C 437.5,475.833 437.5,491.167 437.5,506.5C 450.833,506.5 464.167,506.5 477.5,506.5C 477.5,491.167 477.5,475.833 477.5,460.5C 485.167,460.5 492.833,460.5 500.5,460.5C 500.5,443.833 500.5,427.167 500.5,410.5C 507.167,410.5 513.833,410.5 520.5,410.5C 520.5,402.167 520.5,393.833 520.5,385.5C 525.5,385.5 530.5,385.5 535.5,385.5C 535.5,379.167 535.5,372.833 535.5,366.5C 541.167,366.5 546.833,366.5 552.5,366.5C 552.912,438.481 522.578,492.981 461.5,530C 404.167,560 346.833,560 289.5,530C 221.897,487.956 192.397,427.122 201,347.5C 206.741,346.525 212.575,346.192 218.5,346.5C 218.5,362.5 218.5,378.5 218.5,394.5C 223.5,394.5 228.5,394.5 233.5,394.5C 233.5,407.167 233.5,419.833 233.5,432.5C 239.833,432.5 246.167,432.5 252.5,432.5C 252.5,450.833 252.5,469.167 252.5,487.5C 269.5,487.5 286.5,487.5 303.5,487.5C 303.5,469.167 303.5,450.833 303.5,432.5C 310.167,432.5 316.833,432.5 323.5,432.5C 323.5,413.5 323.5,394.5 323.5,375.5C 303.833,375.5 284.167,375.5 264.5,375.5C 264.5,362.833 264.5,350.167 264.5,337.5C 258.167,337.5 251.833,337.5 245.5,337.5C 245.5,325.833 245.5,314.167 245.5,302.5C 262.833,302.5 280.167,302.5 297.5,302.5C 297.5,290.5 297.5,278.5 297.5,266.5C 323.5,266.5 349.5,266.5 375.5,266.5C 375.5,262.5 375.5,258.5 375.5,254.5C 384.833,254.5 394.167,254.5 403.5,254.5C 403.5,236.833 403.5,219.167 403.5,201.5 Z"/></g>
</svg>
